<?xml version="1.0" encoding="utf-8"?>
<!-- Generator: Adobe Illustrator 16.0.0, SVG Export Plug-In . SVG Version: 6.00 Build 0)  -->
<!DOCTYPE svg PUBLIC "-//W3C//DTD SVG 1.1//EN" "http://www.w3.org/Graphics/SVG/1.1/DTD/svg11.dtd">
<svg version="1.1" id="Layer_1" xmlns="http://www.w3.org/2000/svg" xmlns:xlink="http://www.w3.org/1999/xlink" x="0px" y="0px"
	 width="82px" height="25px" viewBox="0 0 82 25" enable-background="new 0 0 82 25" xml:space="preserve">
<g>
	<path fill="#86A7B5" d="M6.322,6.668c0,0.225,0.104,0.453,0.314,0.688c0.209,0.233,0.879,0.648,2.008,1.243
		c1.13,0.595,1.892,1.178,2.286,1.75c0.395,0.571,0.592,1.176,0.592,1.811c0,0.987-0.413,1.774-1.238,2.361S8.392,15.4,7.083,15.4
		c-0.723,0-1.443-0.159-2.161-0.476c-0.718-0.317-1.077-0.638-1.077-0.96c0-0.265-0.02-0.592-0.059-0.979s-0.059-0.699-0.059-0.936
		c0-0.48,0.223-0.722,0.667-0.722c0.128,0,0.247,0.054,0.356,0.161c0.108,0.107,0.279,0.467,0.512,1.076
		c0.233,0.611,0.516,1.028,0.851,1.253c0.334,0.225,0.71,0.337,1.127,0.337c0.514,0,0.95-0.171,1.309-0.512
		c0.358-0.342,0.538-0.78,0.538-1.316c0-0.351-0.122-0.68-0.365-0.987c-0.244-0.307-0.908-0.719-1.994-1.235
		C5.646,9.588,4.94,9.083,4.614,8.591S4.125,7.564,4.125,6.988c0-0.761,0.354-1.399,1.062-1.916s1.531-0.775,2.468-0.775
		c0.781,0,1.543,0.136,2.285,0.407c0.742,0.272,1.113,0.561,1.113,0.867c0,0.186,0.02,0.415,0.059,0.688s0.059,0.493,0.059,0.659
		c0,0.205-0.052,0.386-0.156,0.542s-0.235,0.234-0.393,0.234c-0.228,0-0.389-0.057-0.482-0.17c-0.094-0.112-0.18-0.312-0.257-0.597
		C9.805,6.644,9.679,6.417,9.504,6.25S9.098,5.931,8.807,5.793C8.516,5.655,8.191,5.586,7.833,5.586S7.133,5.7,6.809,5.93
		S6.322,6.405,6.322,6.668z"/>
	<path fill="#86A7B5" d="M18.934,4.355c1.621,0,3.035,0.557,4.241,1.67s1.809,2.397,1.809,3.853c0,1.631-0.576,2.959-1.729,3.984
		S20.56,15.4,18.626,15.4c-1.523,0-2.893-0.522-4.109-1.567s-1.824-2.344-1.824-3.896c0-1.484,0.535-2.785,1.604-3.904
		C15.367,4.915,16.913,4.355,18.934,4.355z M18.949,14.111c1.123,0,2.019-0.405,2.688-1.216s1.003-1.836,1.003-3.076
		c0-1.221-0.359-2.222-1.077-3.003s-1.628-1.172-2.732-1.172c-1.133,0-2.012,0.384-2.637,1.149
		c-0.625,0.768-0.938,1.756-0.938,2.967c0,1.338,0.347,2.397,1.04,3.179S17.875,14.111,18.949,14.111z"/>
	<path fill="#86A7B5" d="M34.024,13.115c0.252,0,0.378,0.122,0.378,0.366c0,0.303-0.39,0.679-1.169,1.128
		c-0.779,0.449-1.554,0.674-2.324,0.674c-0.526,0-1.091-0.178-1.695-0.534c-0.604-0.355-0.982-0.799-1.133-1.33
		s-0.227-1.489-0.227-2.874l0.029-2.939c0-0.79-0.352-1.258-1.055-1.404c-0.41-0.079-0.671-0.155-0.784-0.229
		s-0.168-0.22-0.168-0.438c0-0.158,0.044-0.294,0.132-0.407c0.088-0.114,0.206-0.171,0.353-0.171c0.137,0,0.417,0.047,0.838,0.139
		c0.421,0.094,0.691,0.14,0.809,0.14c0.137,0,0.421-0.046,0.853-0.14c0.431-0.092,0.7-0.139,0.808-0.139
		c0.069,0,0.152,0.034,0.25,0.103c0.098,0.068,0.154,0.142,0.169,0.22c0.015,0.077,0.034,0.755,0.059,2.032
		c0.024,1.277,0.037,2.452,0.037,3.524c0,0.819,0.029,1.411,0.087,1.777c0.058,0.365,0.24,0.663,0.545,0.892
		c0.305,0.229,0.71,0.344,1.215,0.344c0.378,0,0.771-0.122,1.178-0.366C33.617,13.237,33.889,13.115,34.024,13.115z M36.759,4.956
		c0.343,0,0.515,0.239,0.515,0.718c0,0.947,0.015,2.329,0.044,4.146s0.044,3.037,0.044,3.662c0,2.188-0.254,3.752-0.763,4.695
		c-0.509,0.941-1.055,1.599-1.637,1.97c-0.582,0.371-1.294,0.557-2.136,0.557c-0.714,0-1.279-0.103-1.695-0.308
		s-0.624-0.391-0.624-0.557c0-0.078,0.039-0.164,0.117-0.256c0.078-0.094,0.171-0.14,0.278-0.14c0.078,0,0.237,0.049,0.476,0.146
		s0.51,0.146,0.813,0.146c0.547,0,1.082-0.183,1.604-0.548c0.522-0.366,0.859-0.87,1.011-1.514c0.151-0.643,0.227-1.603,0.227-2.879
		c0-4.58-0.012-7.129-0.037-7.645c-0.024-0.517-0.388-0.831-1.091-0.943S32.85,5.862,32.85,5.505c0-0.365,0.25-0.549,0.75-0.549
		c0.167,0,0.468,0.029,0.904,0.088s0.796,0.088,1.08,0.088c0.215,0,0.441-0.029,0.676-0.088C36.495,4.985,36.661,4.956,36.759,4.956
		z"/>
	<path fill="#86A7B5" d="M48.462,9.204c0.225,0,0.375-0.039,0.453-0.116s0.117-0.218,0.117-0.422c0-0.745-0.29-1.442-0.871-2.092
		s-1.457-0.974-2.629-0.974c-0.811,0-1.648,0.385-2.513,1.155s-1.296,1.862-1.296,3.275c0,1.033,0.455,1.962,1.367,2.786
		c0.91,0.823,1.932,1.235,3.063,1.235c0.857,0,1.784-0.269,2.778-0.806c0.38-0.205,2.384-1.459,2.486-1.518
		c0.223-0.128,1.053-0.832,1.086-0.885c0.111-0.17-0.188,0.51-0.467,1.002c-0.567,1-2.329,2.401-3.408,2.909
		s-2.189,0.762-3.332,0.762c-1.689,0-3.111-0.576-4.263-1.729c-1.152-1.152-1.729-2.524-1.729-4.116c0-1.455,0.632-2.7,1.897-3.735
		s2.683-1.553,4.255-1.553c2.041,0,3.57,0.522,4.586,1.567s1.523,2.295,1.523,3.75c0,0.313-0.078,0.506-0.234,0.578
		c-0.156,0.074-0.443,0.11-0.863,0.11h-6.712c-0.546,0-0.819-0.202-0.819-0.608c0-0.385,0.283-0.578,0.85-0.578H48.462z"/>
	<path fill="#86A7B5" d="M58.671,4.355c1.621,0,3.035,0.557,4.241,1.67s1.81,2.397,1.81,3.853c0,1.631-0.576,2.959-1.729,3.984
		S60.298,15.4,58.364,15.4c-1.523,0-2.894-0.522-4.109-1.567s-1.824-2.344-1.824-3.896c0-1.484,0.535-2.785,1.604-3.904
		C55.104,4.915,56.649,4.355,58.671,4.355z M58.687,14.111c1.123,0,2.019-0.405,2.688-1.216s1.004-1.836,1.004-3.076
		c0-1.221-0.359-2.222-1.077-3.003s-1.628-1.172-2.731-1.172c-1.133,0-2.012,0.384-2.637,1.149
		c-0.625,0.768-0.938,1.756-0.938,2.967c0,1.338,0.346,2.397,1.039,3.179S57.612,14.111,58.687,14.111z"/>
	<path fill="#86A7B5" d="M67.769,7.282c0-0.36-0.071-0.631-0.213-0.811c-0.142-0.181-0.438-0.31-0.887-0.388
		s-0.674-0.28-0.674-0.607c0-0.139,0.078-0.274,0.235-0.408s0.362-0.2,0.618-0.2c0.107,0,0.296,0.034,0.565,0.103
		c0.271,0.068,0.493,0.103,0.669,0.103c0.107,0,0.355-0.029,0.742-0.088c0.388-0.059,0.631-0.088,0.729-0.088
		c0.195,0,0.333,0.08,0.411,0.242c0.078,0.16,0.122,0.485,0.132,0.974c0.02,0.811,0.029,1.675,0.029,2.593l-0.088,4.175
		c0,0.303,0.025,0.488,0.074,0.557s0.163,0.156,0.344,0.264s0.412,0.19,0.695,0.249s0.465,0.14,0.543,0.244
		c0.078,0.104,0.117,0.226,0.117,0.364c0,0.327-0.255,0.49-0.764,0.49c-0.354,0-0.715-0.032-1.087-0.095
		c-0.372-0.064-0.739-0.096-1.102-0.096c-0.294,0-0.673,0.027-1.138,0.08c-0.466,0.054-0.811,0.081-1.035,0.081
		c-0.5,0-0.75-0.183-0.75-0.55c0-0.157,0.045-0.286,0.133-0.385c0.088-0.1,0.277-0.159,0.57-0.179
		c0.332-0.02,0.537-0.068,0.615-0.146c0.225-0.233,0.367-0.438,0.426-0.614c0.059-0.175,0.088-0.535,0.088-1.081V7.282z
		 M76.747,12.91c0,0.42,0.071,0.696,0.213,0.827c0.142,0.133,0.396,0.24,0.762,0.322c0.366,0.084,0.549,0.239,0.549,0.468
		c0,0.309-0.181,0.463-0.543,0.463c-0.068,0-0.362-0.018-0.881-0.052c-0.52-0.034-0.955-0.051-1.308-0.051
		c-0.587,0-1.081,0.037-1.483,0.109c-0.4,0.074-0.66,0.11-0.777,0.11c-0.177,0-0.341-0.06-0.492-0.178
		c-0.152-0.119-0.229-0.263-0.229-0.431c0-0.129,0.064-0.25,0.191-0.363c0.127-0.114,0.273-0.171,0.439-0.171
		c0.313,0,0.59-0.09,0.834-0.271c0.244-0.18,0.367-0.451,0.367-0.812c0-2.349,0.014-3.804,0.043-4.364
		c0.029-0.56,0.045-0.875,0.045-0.942c0-0.761-0.35-1.141-1.048-1.141c-0.3,0-0.729,0.229-1.286,0.688
		c-0.558,0.459-0.953,0.688-1.186,0.688c-0.077,0-0.164-0.05-0.262-0.148c-0.097-0.1-0.145-0.203-0.145-0.313
		c0-0.347,0.447-0.872,1.344-1.575s1.773-1.055,2.631-1.055c0.506,0,0.945,0.13,1.314,0.389c0.371,0.259,0.617,0.583,0.738,0.974
		c0.122,0.391,0.184,0.942,0.184,1.655l-0.016,0.938V12.91z"/>
</g>
</svg>
